# xmcd
#
# Track frame offsets: 
#        150
#        25343
#        45645
#        66960
#
# Disc length: 1256 seconds
#
# Revision: 0
# Processed by: cddbd v1.5.1PL2 Copyright (c) Steve Scherf et al.
# Submitted via: ExactAudioCopy v0.95b4
#
DISCID=3004e604
DTITLE=Lambchop - Bonus Damaged
DYEAR=2006
DGENRE=Country
TTITLE0=Pre
TTITLE1=Fear(Re)
TTITLE2=Decline
TTITLE3=Paperback Bible (With Drums)
EXTD=
EXTT0=
EXTT1=
EXTT2=
EXTT3=
PLAYORDER=
